<svg width="20" height="20" viewBox="0 0 20 20" fill="none" aria-hidden="true"><path d="M17.209 16.9151C16.6459 17.5033 16.0125 18.0199 15.323 18.4531H4.67501C3.98749 18.0184 3.35521 17.502 2.79201 16.9151H17.209Z" fill="white"></path><path d="M17.207 3.07711H2.79001C3.35411 2.48903 3.98779 1.97188 4.67701 1.53711H15.32C16.0094 1.97163 16.6431 2.4888 17.207 3.07711Z" fill="white"></path><path d="M19.731 12.3022C19.8508 11.7965 19.931 11.2823 19.971 10.7642H0.0299988C0.0709988 11.2882 0.150999 11.8022 0.269999 12.3022H19.731Z" fill="white"></path><path d="M0.769989 13.8408H19.2306C19.0071 14.3756 18.7369 14.8896 18.423 15.3768H1.57699C1.26331 14.8896 0.993259 14.3756 0.769989 13.8408Z" fill="white"></path><path d="M19.231 6.14979C19.2309 6.14946 19.2311 6.15013 19.231 6.14979V6.14979Z" fill="white"></path><path d="M0.769999 6.14979H19.231C19.0061 5.61216 18.7348 5.09849 18.423 4.61279H1.577C1.463 4.79079 1.353 4.97579 1.25 5.16079C1.07116 5.48098 0.910896 5.81119 0.769999 6.14979Z" fill="white"></path><path d="M0.0299988 9.22679H19.971L19.972 9.22779C19.932 8.70379 19.852 8.18779 19.732 7.68979H0.269999C0.161878 8.1325 0.0876629 8.5828 0.0479988 9.03679C0.0409141 9.10002 0.0349132 9.16336 0.0299988 9.22679Z" fill="white"></path><path d="M4.67804 1.538C4.99504 1.336 5.32404 1.155 5.66504 0.989002C5.68764 0.979822 5.70974 0.969145 5.73275 0.95803L5.76204 0.944002C5.87604 0.890002 5.99204 0.839002 6.11204 0.787002C6.14122 0.774657 6.17103 0.762942 6.20058 0.751327C6.2237 0.742242 6.24666 0.733218 6.26904 0.724002C7.45389 0.245001 8.72004 -0.000827517 9.99804 2.0928e-06H10C11.957 2.0928e-06 13.78 0.565002 15.322 1.538H4.67804Z" fill="#CE152A"></path><path d="M1.57704 4.613C1.67263 4.46315 1.77302 4.3164 1.87804 4.173C2.15604 3.788 2.46104 3.42 2.79104 3.077H17.208C17.6625 3.54784 18.0695 4.06233 18.423 4.613H1.57704Z" fill="#CE152A"></path><path d="M19.731 7.69H0.269043C0.395043 7.16 0.564043 6.647 0.770043 6.15H19.231C19.437 6.646 19.607 7.16 19.731 7.69Z" fill="#CE152A"></path><path d="M19.231 13.8408C19.4401 13.3425 19.6073 12.8278 19.731 12.3018V12.3008H0.269043C0.393951 12.8269 0.561505 13.3419 0.770043 13.8408H19.231Z" fill="#CE152A"></path><path d="M17.2079 16.915C17.6629 16.4438 18.0699 15.9286 18.4229 15.377H1.5769C1.93022 15.9281 2.33684 16.4433 2.7909 16.915H17.2079Z" fill="#CE152A"></path><path d="M9.9999 19.991C11.8845 19.9937 13.7311 19.4603 15.3239 18.453H4.6759C6.26896 19.4598 8.11535 19.9932 9.9999 19.991Z" fill="#CE152A"></path><path d="M19.971 10.765C19.99 10.511 20 10.255 20 9.99503C20 9.73803 19.992 9.48103 19.972 9.22803H0.03003C0.01003 9.48203 2.99695e-05 9.73703 2.99695e-05 9.99503C-0.000622723 10.252 0.00938588 10.5089 0.03003 10.765H19.971Z" fill="#CE152A"></path><path fill-rule="evenodd" clip-rule="evenodd" d="M9.998 0.000980566V10.765H0.0299977C0.0093731 10.5088 -0.000635471 10.252 -2.25863e-06 9.99498C-0.000498381 9.67537 0.015523 9.35594 0.0479977 9.03798C0.088784 8.58387 0.162647 8.13334 0.268998 7.68998C0.480409 6.80705 0.810052 5.9567 1.249 5.16198C1.43183 4.83231 1.63349 4.51345 1.853 4.20698C1.86 4.19698 1.87 4.18598 1.878 4.17298C2.85465 2.81207 4.15659 1.71743 5.665 0.988981C5.697 0.976981 5.728 0.960981 5.762 0.944981C5.876 0.890981 5.994 0.839981 6.112 0.787981C6.164 0.764981 6.218 0.744981 6.269 0.723981C7.45391 0.245322 8.72006 -0.000166788 9.998 0.000980566Z" fill="#3C3B6D"></path><path d="M8.87297 0.94416L8.73197 0.51416L8.59297 0.94416H8.13697L8.50497 1.21416L8.36397 1.64616L8.73197 1.37616L9.10197 1.64616L8.96097 1.21416L9.32897 0.94416H8.87297Z" fill="white"></path><path d="M6.56997 1.64616L6.53597 1.53816L6.43097 1.21416L6.79597 0.94416H6.34297L6.26897 0.72416L6.11097 0.78716L6.06097 0.94416H5.76197C5.75198 0.948861 5.74225 0.953562 5.73267 0.958188C5.70967 0.969303 5.68757 0.97998 5.66497 0.98916L5.97297 1.21316L5.86797 1.53816L5.83397 1.64616L5.97997 1.53816L6.20197 1.37816L6.42397 1.53816L6.56997 1.64616Z" fill="white"></path><path d="M8.87297 3.09716L8.73197 2.66416L8.59297 3.09716H8.13697L8.50497 3.36416L8.36397 3.79616L8.73197 3.53016L9.10197 3.79616L8.96097 3.36416L9.32897 3.09716H8.87297Z" fill="white"></path><path d="M6.34197 3.09716L6.20197 2.66416L6.06097 3.09716H5.60397L5.97397 3.36416L5.83397 3.79616L6.20197 3.53016L6.56897 3.79616L6.42897 3.36416L6.79597 3.09716H6.34197Z" fill="white"></path><path d="M3.80997 3.09716L3.66997 2.66416L3.52897 3.09716H3.07297L3.44097 3.36416L3.29997 3.79616L3.66997 3.53016L4.03797 3.79616L3.89697 3.36416L4.26497 3.09716H3.80997Z" fill="white"></path><path d="M8.87297 5.25016L8.73197 4.81716L8.59297 5.25016H8.13697L8.50497 5.51716L8.36397 5.94916L8.73197 5.68316L9.10197 5.94916L8.96097 5.51716L9.32897 5.25016H8.87297Z" fill="white"></path><path d="M6.34197 5.25016L6.20197 4.81716L6.06097 5.25016H5.60397L5.97397 5.51716L5.83397 5.94916L6.20197 5.68316L6.56897 5.94916L6.42897 5.51716L6.79597 5.25016H6.34197Z" fill="white"></path><path d="M3.80997 5.25016L3.66997 4.81716L3.52897 5.25016H3.07297L3.44097 5.51716L3.29997 5.94916L3.66997 5.68316L4.03797 5.94916L3.89697 5.51716L4.26497 5.25016H3.80997Z" fill="white"></path><path d="M1.50597 5.95016L1.36597 5.51716L1.73197 5.25016H1.27997L1.24997 5.16316C1.12397 5.38716 1.00697 5.62016 0.899969 5.85516L1.13697 5.68316L1.50597 5.95016Z" fill="white"></path><path d="M8.87297 7.40016L8.73197 6.96716L8.59297 7.40016H8.13697L8.50497 7.66916L8.36397 8.09916L8.73197 7.83316L9.10197 8.10016L8.96097 7.67016L9.32897 7.40016H8.87297Z" fill="white"></path><path d="M6.34197 7.40016L6.20197 6.96716L6.06097 7.40016H5.60397L5.97397 7.66916L5.83397 8.09916L6.20197 7.83316L6.56897 8.10016L6.42897 7.67016L6.79597 7.40016H6.34197Z" fill="white"></path><path d="M3.80997 7.40016L3.66997 6.96716L3.52897 7.40016H3.07297L3.44097 7.66916L3.29997 8.09916L3.66997 7.83316L4.03797 8.10016L3.89697 7.67016L4.26497 7.40016H3.80997Z" fill="white"></path><path d="M1.27797 7.40016L1.13797 6.96716L0.995969 7.40016H0.542969L0.909969 7.66916L0.769969 8.09916L1.13797 7.83316L1.50497 8.10016L1.36497 7.67016L1.73497 7.40016H1.27797Z" fill="white"></path><path d="M8.87297 9.55316L8.73197 9.12016L8.59297 9.55316H8.13697L8.50497 9.82016L8.36397 10.2522L8.73197 9.98616L9.10197 10.2522L8.96097 9.82016L9.32897 9.55316H8.87297Z" fill="white"></path><path d="M6.34197 9.55316L6.20197 9.12016L6.06097 9.55316H5.60397L5.97397 9.82016L5.83397 10.2522L6.20197 9.98616L6.56897 10.2522L6.42897 9.82016L6.79597 9.55316H6.34197Z" fill="white"></path><path d="M3.80997 9.55316L3.66997 9.12016L3.52897 9.55316H3.07297L3.44097 9.82016L3.29997 10.2522L3.66997 9.98616L4.03797 10.2522L3.89697 9.82016L4.26497 9.55316H3.80997Z" fill="white"></path><path d="M1.27797 9.55316L1.13797 9.12016L0.995969 9.55316H0.542969L0.909969 9.82016L0.769969 10.2522L1.13797 9.98616L1.50497 10.2522L1.36497 9.82016L1.73497 9.55316H1.27797Z" fill="white"></path><path d="M7.60897 8.47716L7.46697 8.04316L7.32797 8.47616H6.87297L7.23897 8.74316L7.09897 9.17716L7.46697 8.90916L7.83497 9.17716L7.69597 8.74316L8.06397 8.47716H7.60897Z" fill="white"></path><path d="M5.07497 8.47716L4.93597 8.04316L4.79497 8.47616H4.33897L4.70697 8.74316L4.56797 9.17716L4.93597 8.90916L5.30397 9.17716L5.16297 8.74316L5.53097 8.47716H5.07497Z" fill="white"></path><path d="M2.54397 8.47716L2.40297 8.04316L2.26297 8.47616H1.80797L2.17597 8.74316L2.03497 9.17716L2.40297 8.90916L2.77197 9.17716L2.63197 8.74316L2.99997 8.47716H2.54397Z" fill="white"></path><path d="M7.60911 6.32589L7.46711 5.89289L7.32811 6.32589H6.87311L7.23911 6.59289L7.09911 7.02589L7.46711 6.75589L7.83511 7.02489L7.69611 6.59289L8.06411 6.32589H7.60911Z" fill="white"></path><path d="M5.07511 6.32589L4.93611 5.89289L4.79511 6.32589H4.33911L4.70711 6.59289L4.56811 7.02589L4.93611 6.75589L5.30411 7.02489L5.16311 6.59289L5.53111 6.32589H5.07511Z" fill="white"></path><path d="M2.54411 6.32589L2.40311 5.89289L2.26311 6.32589H1.80811L2.17611 6.59289L2.03511 7.02589L2.40311 6.75589L2.77211 7.02489L2.63211 6.59289L3.00011 6.32589H2.54411Z" fill="white"></path><path d="M7.60911 4.17289L7.46711 3.73989L7.32811 4.17289H6.87311L7.23911 4.43989L7.09911 4.87289L7.46711 4.60589L7.83511 4.87289L7.69611 4.43989L8.06411 4.17289H7.60911Z" fill="white"></path><path d="M5.07511 4.17289L4.93611 3.73989L4.79511 4.17289H4.33911L4.70711 4.43989L4.56811 4.87289L4.93611 4.60589L5.30411 4.87289L5.16311 4.43989L5.53111 4.17289H5.07511Z" fill="white"></path><path d="M2.77311 4.87289L2.68811 4.61289L2.63211 4.43989L3.00011 4.17389H2.54411L2.40311 3.73989L2.26211 4.17389H1.87811C1.86911 4.18489 1.8601 4.19589 1.85311 4.20689L2.17611 4.43989L2.12011 4.61289L2.03511 4.87289L2.39211 4.61289L2.40311 4.60589L2.41411 4.61289L2.77311 4.87289Z" fill="white"></path><path d="M7.60911 2.02089L7.46711 1.58789L7.32811 2.01989H6.87311L7.23911 2.28989L7.09911 2.71989L7.46711 2.45289L7.83511 2.71989L7.69611 2.28989L8.06411 2.02089H7.60911Z" fill="white"></path><path d="M5.07511 2.02089L4.93611 1.58789L4.79511 2.01989H4.33911L4.70711 2.28989L4.56811 2.71989L4.93611 2.45289L5.30411 2.71989L5.16311 2.28989L5.53111 2.02089H5.07511Z" fill="white"></path></svg>