<svg width="24" height="24" viewBox="0 0 24 24" fill="none" xmlns="http://www.w3.org/2000/svg" role="presentation" class="ReasonsToSignUp___style-module__checkmark___1i_sW"><path d="M12 24.0001C18.6274 24.0001 24 18.6274 24 11.9999C24 11.1429 23.9101 10.3069 23.7393 9.50067C23.616 8.91862 22.9816 8.63001 22.436 8.86737L22.4154 8.8764C21.9549 9.07675 21.72 9.58679 21.8158 10.0798C21.9367 10.7012 22 11.3432 22 11.9999C22 17.5228 17.5228 22.0001 12 22.0001C6.47715 22.0001 2 17.5228 2 11.9999C2 6.47709 6.47715 1.99987 12 1.99987C13.8677 1.99987 15.6159 2.51185 17.1117 3.40319C17.5635 3.6724 18.1569 3.6013 18.4952 3.1986C18.8647 2.7587 18.7941 2.09026 18.3055 1.78796C16.4733 0.654184 14.3131 0 12 0C5.37258 0 0 5.37252 0 11.9999C0 18.6274 5.37258 24.0001 12 24.0001Z" fill="#0aa299"></path><path d="M21.0967 3.49987C21.4358 3.06392 22.0641 2.98526 22.5 3.32433C22.9359 3.6634 23.0145 4.2917 22.6754 4.72765C19.2167 8.82164 11.7894 17.6139 11.7894 17.6139C11.6014 17.8555 11.313 17.9978 11.0069 17.9998C10.7007 18.0019 10.4104 17.8637 10.2191 17.6246L6.21913 12.6245C5.87412 12.1932 5.94404 11.5639 6.37531 11.2189C6.80657 10.8739 7.43586 10.9439 7.78087 11.3752L10.9889 15.3853C14.4042 11.3695 17.8519 7.31538 21.0967 3.49987Z" fill="#0aa299"></path></svg>