<svg width="24" height="24" viewBox="0 0 24 24" fill="none"
                xmlns="http://www.w3.org/2000/svg" color="#25282D">
                <path
                  d="M22 5.00006C22 4.44778 21.5523 4.00006 21 4.00006H3C2.44772 4.00006 2 4.44778 2 5.00006C2 5.55235 2.44772 6.00006 3 6.00006H21C21.5523 6.00006 22 5.55235 22 5.00006Z"
                  fill="currentColor"></path>
                <path
                  d="M22 12.0001C22 11.4478 21.5523 11.0001 21 11.0001H3C2.44772 11.0001 2 11.4478 2 12.0001C2 12.5523 2.44772 13.0001 3 13.0001H21C21.5523 13.0001 22 12.5523 22 12.0001Z"
                  fill="currentColor"></path>
                <path
                  d="M22 19.0001C22 18.4478 21.5523 18.0001 21 18.0001H3C2.44772 18.0001 2 18.4478 2 19.0001C2 19.5523 2.44772 20.0001 3 20.0001H21C21.5523 20.0001 22 19.5523 22 19.0001Z"
                  fill="currentColor"></path>
              </svg>