<svg width="24" height="24" viewBox="0 0 24 24" fill="none" xmlns="http://www.w3.org/2000/svg" aria-labelledby="twitter-title"><title id="twitter-title">Twitter</title><path d="M21.5331 7.10975C21.5483 7.32302 21.5483 7.53634 21.5483 7.74961C21.5483 14.2547 16.5991 21.75 7.55333 21.75C4.7665 21.75 2.17768 20.9425 0 19.541C0.395955 19.5867 0.776628 19.602 1.18782 19.602C3.48728 19.602 5.60407 18.825 7.29444 17.4996C5.13199 17.4539 3.31979 16.0371 2.69542 14.0871C3.00001 14.1328 3.30456 14.1633 3.62439 14.1633C4.066 14.1633 4.50766 14.1023 4.9188 13.9957C2.66499 13.5386 0.974582 11.5582 0.974582 9.1664V9.10548C1.62938 9.47111 2.39087 9.69962 3.19792 9.73006C1.87304 8.84644 1.00505 7.33826 1.00505 5.632C1.00505 4.71795 1.24866 3.88006 1.67508 3.14881C4.09642 6.13474 7.73605 8.08471 11.8172 8.29803C11.7411 7.9324 11.6954 7.55158 11.6954 7.17071C11.6954 4.45896 13.8883 2.25 16.6142 2.25C18.0304 2.25 19.3096 2.84414 20.2081 3.80391C21.3198 3.59063 22.3858 3.17929 23.33 2.61563C22.9644 3.75823 22.1878 4.718 21.1675 5.32733C22.1574 5.22074 23.1168 4.94646 24 4.56564C23.3301 5.5406 22.4924 6.40893 21.5331 7.10975V7.10975Z" fill="#25282D"></path></svg>